<svg xmlns="http://www.w3.org/2000/svg" width="69" height="112" viewBox="0 0 69 112"><defs><linearGradient id="a" x1="50%" x2="50%" y1="0%" y2="100%"><stop offset="0%" stop-color="#00FF0F"/><stop offset="100%" stop-color="#003003"/></linearGradient></defs><path fill="url(#a)" fill-rule="evenodd" d="M10.7782274,2.01714421 C11.032022,1.46236754 11.3791344,0.936653556 11.6291722,0.380828847 C16.130632,6.76337225 20.7492087,10.3828796 24.110317,12.524989 C30.6874278,16.5640999 38.0149665,19.3565572 44.5449638,23.5892711 C50.7109537,27.6234065 56.4522014,32.4738248 60.6422975,38.4613204 C68.9616796,50.3193888 71.1195873,66.2209283 63.7469909,79.0498964 L63.4914942,79.5137007 C63.3551216,79.7553277 63.2033977,80.000996 63.0254556,80.2032488 C61.4074681,82.7703549 59.7732127,84.6133779 58.4919356,85.924018 C59.3567797,89.2615808 60.2166483,93.0102645 60.9257867,96.9289283 C61.599935,100.431077 62.0552828,103.786214 62.3044579,106.923404 L62.3673125,107.773544 C62.5136036,109.15943 61.8611399,110.432333 60.636395,111.13944 C60.0240225,111.492993 59.2707996,111.602558 58.5954243,111.421592 C57.338948,111.08492 56.3412907,109.782322 56.4428325,108.256616 C56.6647685,104.826819 56.6600817,100.087519 56.0101574,94.5768091 L55.8531234,93.3064595 C55.2583566,88.7696125 53.4375434,79.0240459 47.8743899,68.0229774 L47.5977639,67.4809465 C45.013306,62.4411113 41.6706445,57.9219812 35.0799304,48.9092785 L34.2391815,47.7761523 C30.4915986,42.7469449 27.2363627,38.6652465 24.846741,35.7089437 C24.6077718,35.4386644 24.197632,35.4298728 24.0469613,35.599786 C23.7766819,35.8387553 23.7931667,36.1545627 23.9378036,36.3995658 L24.6326584,37.2951706 C29.5819665,43.7149318 36.2825834,53.2547754 42.1827494,63.33242 L42.6157069,64.0567348 C44.2111958,66.7616529 45.8861086,70.0215274 47.3654451,74.3276458 L47.5659348,74.9213749 C49.5281458,80.7287128 50.1494807,85.7601688 50.4534055,89.2592589 L49.8447104,89.4443751 C47.7367488,90.0699963 44.8473394,90.7600213 41.4264682,90.876419 C28.4419397,91.4331457 16.6031404,84.2250284 9.50198651,73.6276164 C3.65815527,64.9200174 0.924721342,54.2472882 0.615134314,43.8115728 C0.431520032,36.7299134 1.29173673,29.6468161 2.87419021,22.7453808 L3.0944258,21.8054191 C4.60623056,15.0640247 7.10610603,8.87661658 10.3509783,2.80876042 L10.7782274,2.01714421 Z"/></svg>